<?xml version="1.0" encoding="UTF-8"?>
<svg id="Lag_2" data-name="Lag 2" xmlns="http://www.w3.org/2000/svg" viewBox="0 0 441 132.75">
  <defs>
    <style>
      .cls-1 {
        fill: #fff;
      }
    </style>
  </defs>
  <g id="Layer_1" data-name="Layer 1">
    <path class="cls-1" d="M10,87.75H0c0,19.88,16.12,36,36,36s36-16.12,36-36v-54h-10v54c0,14.34-11.66,26-26,26s-26-11.66-26-26"/>
    <path class="cls-1" d="M100,53.75l32,24h-15c-3.15,0-6.11,1.48-8,4l-9,12v-40M90,33.75v90l27-36h45l-72-54h0Z"/>
    <g>
      <path class="cls-1" d="M345.01,33.75h-74.07c-5.49,0-9.93,4.45-9.93,9.93v70.13c0,5.49,4.45,9.93,9.93,9.93h70.13c5.49,0,9.93-4.45,9.93-9.93V39.74c0-3.31-2.68-5.99-5.99-5.99ZM337.06,113.75h-62.12c-2.18,0-3.94-1.76-3.94-3.94v-12.85l7.49-7.49,17.6,17.6,27.39-27.39,17.52,17.52v12.61c0,2.18-1.76,3.94-3.94,3.94ZM323.48,65.54l-27.39,27.39-17.6-17.6-7.49,7.49v-35.13c0-2.18,1.76-3.94,3.94-3.94h66.06v39.31l-17.52-17.52Z"/>
      <circle class="cls-1" cx="296.02" cy="68.88" r="8.13"/>
    </g>
    <g>
      <path class="cls-1" d="M360,24.75v108h81V24.75h-81ZM431.99,107.45c-.36,8.99-8.44,16.3-18.01,16.3h-44.97V33.75h45.13c9.06,0,16.86,6.63,17.76,15.09.74,6.97-2.73,13.61-8.86,16.92l-24.06,12.99,24.06,12.99c5.78,3.12,9.21,9.14,8.95,15.71Z"/>
      <path class="cls-1" d="M418.29,100.54l-24.06-12.99c-3.23-1.75-5.25-5.12-5.25-8.8s2.02-7.05,5.25-8.8l24.06-12.99c2.54-1.37,3.97-4.14,3.66-7.06-.36-3.39-3.87-6.15-7.82-6.15h-35.13v70h34.97c4.2,0,7.87-3.07,8.02-6.71.11-2.76-1.27-5.2-3.7-6.51Z"/>
    </g>
    <polygon class="cls-1" points="190.29 74.99 249.41 54.25 252 42.75 183.01 66.95 191.51 29.14 181.76 26.95 162 114.75 171.76 116.95 180.26 79.14 232.24 130.55 234.83 119.05 190.29 74.99"/>
    <path class="cls-1" d="M189,6.75l-9-6.75v5.25c-15.66,0-28.39,12.85-28.47,28.5h-5.28l6.75,9,6.75-9h-5.25,0c0-14.06,11.44-25.5,25.5-25.5v5.25l9-6.75Z"/>
  </g>
</svg>